<svg width="16" height="16" viewBox="0 0 16 16" fill="none" xmlns="http://www.w3.org/2000/svg">
<g clip-path="url(#clip0_318_348)">
<path d="M8 16C8.53043 16 9.03914 15.7893 9.41421 15.4142C9.78929 15.0391 10 14.5304 10 14H6C6 14.5304 6.21071 15.0391 6.58579 15.4142C6.96086 15.7893 7.46957 16 8 16ZM8.995 1.099C9.00896 0.959954 8.99362 0.819526 8.94997 0.686773C8.90632 0.55402 8.83533 0.43189 8.74158 0.328258C8.64783 0.224626 8.5334 0.141795 8.40567 0.0851046C8.27794 0.0284146 8.13974 -0.000874877 8 -0.000874877C7.86026 -0.000874877 7.72206 0.0284146 7.59433 0.0851046C7.4666 0.141795 7.35217 0.224626 7.25842 0.328258C7.16467 0.43189 7.09368 0.55402 7.05003 0.686773C7.00638 0.819526 6.99104 0.959954 7.005 1.099C5.87455 1.32855 4.85823 1.94191 4.12831 2.83513C3.39839 3.72835 2.99977 4.84647 3 6C3 7.098 2.5 12 1 13H15C13.5 12 13 7.098 13 6C13 3.58 11.28 1.56 8.995 1.099Z" fill="white"/>
</g>
<defs>
<clipPath id="clip0_318_348">
<rect width="16" height="16" fill="white"/>
</clipPath>
</defs>
</svg>
