<svg width="16" height="16" viewBox="0 0 16 16" fill="none" xmlns="http://www.w3.org/2000/svg">
<g clip-path="url(#clip0_318_352)">
<path d="M8 16C8.53043 16 9.03914 15.7893 9.41421 15.4142C9.78929 15.0391 10 14.5304 10 14H6C6 14.5304 6.21071 15.0391 6.58579 15.4142C6.96086 15.7893 7.46957 16 8 16ZM8 1.918L7.203 2.079C6.29879 2.26285 5.48594 2.75366 4.9022 3.46825C4.31846 4.18285 3.99972 5.07729 4 6C4 6.628 3.866 8.197 3.541 9.742C3.381 10.509 3.165 11.308 2.878 12H13.122C12.835 11.308 12.62 10.51 12.459 9.742C12.134 8.197 12 6.628 12 6C12 5.07746 11.6812 4.18326 11.0975 3.46887C10.5138 2.75448 9.70104 2.26382 8.797 2.08L8 1.918ZM14.22 12C14.443 12.447 14.701 12.801 15 13H1C1.299 12.801 1.557 12.447 1.78 12C2.68 10.2 3 6.88 3 6C3 3.58 4.72 1.56 7.005 1.099C6.99104 0.959954 7.00638 0.819526 7.05003 0.686773C7.09368 0.55402 7.16467 0.43189 7.25842 0.328258C7.35217 0.224626 7.4666 0.141795 7.59433 0.0851046C7.72206 0.0284146 7.86026 -0.000874877 8 -0.000874877C8.13974 -0.000874877 8.27794 0.0284146 8.40567 0.0851046C8.5334 0.141795 8.64783 0.224626 8.74158 0.328258C8.83533 0.43189 8.90632 0.55402 8.94997 0.686773C8.99362 0.819526 9.00896 0.959954 8.995 1.099C10.1255 1.32855 11.1418 1.94191 11.8717 2.83513C12.6016 3.72835 13.0002 4.84647 13 6C13 6.88 13.32 10.2 14.22 12Z" fill="white"/>
</g>
<defs>
<clipPath id="clip0_318_352">
<rect width="16" height="16" fill="white"/>
</clipPath>
</defs>
</svg>
