<svg width="16" height="16" viewBox="0 0 16 16" fill="none" xmlns="http://www.w3.org/2000/svg">
<path d="M4.414 11.5H4.41389C4.01613 11.5001 3.63468 11.6582 3.35345 11.9394C3.35343 11.9395 3.35341 11.9395 3.35339 11.9395L0.500446 14.7924L0.5 14.7929L0.5 2C0.5 1.60218 0.658035 1.22064 0.93934 0.93934C1.22064 0.658035 1.60218 0.5 2 0.5H14C14.3978 0.5 14.7794 0.658035 15.0607 0.93934C15.342 1.22064 15.5 1.60218 15.5 2V10C15.5 10.3978 15.342 10.7794 15.0607 11.0607C14.7794 11.342 14.3978 11.5 14 11.5H4.414ZM5.5 6C5.5 5.60217 5.34196 5.22064 5.06066 4.93934C4.77936 4.65804 4.39783 4.5 4 4.5C3.60217 4.5 3.22064 4.65804 2.93934 4.93934C2.65804 5.22064 2.5 5.60218 2.5 6C2.5 6.39782 2.65804 6.77936 2.93934 7.06066C3.22064 7.34196 3.60217 7.5 4 7.5C4.39783 7.5 4.77936 7.34196 5.06066 7.06066C5.34196 6.77936 5.5 6.39783 5.5 6ZM9.5 6C9.5 5.60217 9.34196 5.22064 9.06066 4.93934C8.77936 4.65804 8.39783 4.5 8 4.5C7.60217 4.5 7.22064 4.65804 6.93934 4.93934C6.65804 5.22064 6.5 5.60217 6.5 6C6.5 6.39783 6.65804 6.77936 6.93934 7.06066C7.22064 7.34196 7.60217 7.5 8 7.5C8.39783 7.5 8.77936 7.34196 9.06066 7.06066C9.34196 6.77936 9.5 6.39783 9.5 6ZM12 7.5C12.3978 7.5 12.7794 7.34196 13.0607 7.06066C13.342 6.77936 13.5 6.39783 13.5 6C13.5 5.60217 13.342 5.22064 13.0607 4.93934C12.7794 4.65804 12.3978 4.5 12 4.5C11.6022 4.5 11.2206 4.65804 10.9393 4.93934C10.658 5.22064 10.5 5.60217 10.5 6C10.5 6.39783 10.658 6.77936 10.9393 7.06066C11.2206 7.34196 11.6022 7.5 12 7.5Z" fill="black" stroke="white"/>
</svg>
